<?xml version="1.0" encoding="utf-8"?>
<!-- Generator: Adobe Illustrator 19.0.1, SVG Export Plug-In . SVG Version: 6.00 Build 0)  -->
<svg version="1.1" id="Слой_1" xmlns="http://www.w3.org/2000/svg" xmlns:xlink="http://www.w3.org/1999/xlink" x="0px" y="0px"
	 viewBox="-285 408.9 24 24" style="enable-background:new -285 408.9 24 24;" xml:space="preserve">
<style type="text/css">
	.st0{fill:none;}
	.st1{fill:#489FC3;}
	.st2{fill:#FFFFFF;}
</style>
<path class="st0" d="M-285,408.9h24v24h-24V408.9z"/>
<line class="st0" x1="-264" y1="426.9" x2="-271.9" y2="426.9"/>
<path class="st1" d="M-265,413.9h-9.1l-0.9-3h-6c-1.1,0-2,0.9-2,2v13c0,1.1,0.9,2,2,2h7l1,3h8c1.1,0,2-0.9,2-2v-13
	C-263,414.8-263.9,413.9-265,413.9z M-268.3,420 M-264,428.9c0,0.5-0.5,1-1,1h-7l2-2l-0.8-2.8l-1.8-6.2l-1.2-4h8.8c0.5,0,1,0.4,1,1
	V428.9z"/>
<path class="st1" d="M-264.3,420.7v4.9c0,0.7-0.6,1.4-1.3,1.4h-2.4c-0.4,0-0.7-0.1-0.9-0.4l-2.6-2.7c0,0,0.4-0.4,0.4-0.4
	c0.1-0.1,0.2-0.1,0.3-0.1c0.1,0,0.1,0,0.2,0.1c0,0,1.4,0.8,1.4,0.8v-4c0-0.3,0.2-0.5,0.5-0.5s0.5,0.2,0.5,0.5v2.4h0.3v-3.2
	c0-0.3,0.2-0.5,0.5-0.5s0.5,0.2,0.5,0.5v3.2h0.3v-2.9c0-0.3,0.2-0.5,0.5-0.5s0.5,0.2,0.5,0.5v2.9h0.3v-1.9c0-0.3,0.2-0.5,0.5-0.5
	S-264.3,420.4-264.3,420.7z"/>
<path class="st2" d="M-276.5,421.6h-3l-0.7,1.9h-1.9l3.3-8.2h1.7l3.3,8.2h-1.9L-276.5,421.6z M-279.1,420.3h2.1l-1.1-3L-279.1,420.3
	z"/>
</svg>
