<?xml version="1.0" encoding="utf-8"?>
<!-- Generator: Adobe Illustrator 19.0.1, SVG Export Plug-In . SVG Version: 6.00 Build 0)  -->
<svg version="1.1" id="Layer_1" xmlns="http://www.w3.org/2000/svg" xmlns:xlink="http://www.w3.org/1999/xlink" x="0px" y="0px"
	 viewBox="-41 164.9 512 512" style="enable-background:new -41 164.9 512 512;" xml:space="preserve">
<path d="M439,476.9c0,101.5-82.5,184-184,184h-80c-101.5,0-184-82.5-184-184v-28.3c26.4,23.7,68.4,11.4,78.2-22.6
	c29.9,33.7,85.4,19.9,96.2-23.8c25.3,28.1,70.2,23.6,89.6-8.6c5,8.3,12.1,15.2,20.5,20C229,438.3,199,487.1,199,540.9
	c0,4.4,3.6,8,8,8s8-3.6,8-8c0-53.6,33.6-101.7,83.9-120.2c32.7,2.4,60.1-23.6,60.1-55.8c0-16.1,0-111.9,0-128c0-31,25-56,56-56
	c13.2,0,24,10.8,24,24v104V476.9z M455,308.9v-104c0-22.1-17.9-40-40-40c-33.5,0-60.7,22.6-69.2,52c-24.7-29.3-70.9-25.9-90.8,7.2
	c-9.8-16.3-27.7-27.2-48-27.2c-28.6,0-52.3,21.6-55.6,49.3c-33.8-35.3-93.2-13.1-96.3,35.1C24.5,253.6-25,275.2-25,316.9v160
	c0,110.3,89.7,200,200,200h80c110.3,0,200-89.7,200-200V308.9z M55,412.9c0,17.6-14.4,32-32,32s-32-14.4-32-32c0-9.6,0-86.4,0-96
	c0-17.6,14.4-32,32-32s32,14.4,32,32V412.9z M151,388.9c0,22.1-17.9,40-40,40s-40-17.9-40-40c0-12.8,0-91.7,0-104
	c0-22.1,17.9-40,40-40s40,17.9,40,40V388.9z M207,404.9c-22.1,0-40-17.9-40-40c0-10.8,0-100.8,0-112c0-22.1,17.9-40,40-40
	s40,17.9,40,40v112C247,386.9,229.1,404.9,207,404.9z M343,364.9c0,22.1-17.9,40-40,40s-40-17.9-40-40v-112c0-22.1,17.9-40,40-40
	s40,17.9,40,40V364.9z"/>
</svg>
