<?xml version="1.0" encoding="utf-8"?>
<!-- Generator: Adobe Illustrator 19.0.1, SVG Export Plug-In . SVG Version: 6.00 Build 0)  -->
<svg version="1.1" id="Слой_1" xmlns="http://www.w3.org/2000/svg" xmlns:xlink="http://www.w3.org/1999/xlink" x="0px" y="0px"
	 viewBox="-57 180.9 480 480" style="enable-background:new -57 180.9 480 480;" xml:space="preserve">
<style type="text/css">
	.st0{fill:#CFD8DC;}
	.st1{fill:#546E7A;}
	.st2{fill:#2196F3;}
	.st3{fill:#3F51B5;}
	.st4{fill:#FFFFFF;}
</style>
<path class="st0" d="M93,310.9h250c11,0,20,9,20,20v250c0,11-9,20-20,20H203L93,310.9z"/>
<path class="st1" d="M261.3,523.7c-33.7,0-61.2-27.4-61.2-61v-46.5c0-10.4,8.8-16.8,16.9-16.8c2.6,0,5,0.6,7.3,1.7
	c2.7-8.4,10.8-13.3,18.4-13.3c3.6,0,7,1,10,2.9c2.8-7.2,9.8-12.2,17.9-12.2c5.3,0,10.4,2.3,14,6.1c3.6-3.9,8.6-6.1,14-6.1
	c4.1,0,8.1,1.3,11.4,3.7c4-7.9,12.2-13.1,21.3-13.1c8,0,14.5,6.5,14.5,14.5v79.1c0,33.6-27.4,61-61.2,61H261.3z M210.5,462.7
	c0,27.9,22.8,50.7,50.8,50.7h23.3c28,0,50.8-22.7,50.8-50.7v-79.1c0-2.3-1.9-4.1-4.2-4.1c-7.4,0-13.5,6-13.5,13.5v37.2
	c0,10.5-8.6,19.1-19.2,19.1c-0.3,0-0.5,0-0.8,0c-13.2,5.1-22.1,17.9-22.1,32.1c0,2.8-2.3,5.2-5.2,5.2s-5.2-2.3-5.2-5.2
	c0-15.1,7.6-29,20-37.3c-0.3-0.3-0.6-0.6-0.9-0.9c-3.6,3.9-8.6,6.1-14,6.1c-4,0-7.7-1.2-10.9-3.4c-3.2,6.3-9.8,10.4-17.1,10.4
	c-4.1,0-7.9-1.2-11.1-3.6c-3,5.1-8.4,8.2-14.5,8.2c-2.2,0-4.4-0.4-6.4-1.3V462.7z M217,409.7c-3.6,0-6.5,2.9-6.5,6.5v27.9
	c0,3.6,2.9,6.5,6.5,6.5s6.5-2.9,6.5-6.5v-27.9C223.5,412.6,220.6,409.7,217,409.7z M242.6,398.1c-4.9,0-8.8,3.9-8.8,8.8v30.2
	c0,4.9,4,8.8,8.8,8.8s8.8-3.9,8.8-8.8v-30.2C251.5,402,247.5,398.1,242.6,398.1z M298.7,388.8c-4.9,0-8.8,3.9-8.8,8.8v32.6
	c0,4.9,4,8.8,8.8,8.8s8.8-3.9,8.8-8.8v-32.6C307.5,392.7,303.5,388.8,298.7,388.8z M270.7,388.8c-4.9,0-8.8,3.9-8.8,8.8v32.6
	c0,4.9,4,8.8,8.8,8.8s8.8-3.9,8.8-8.8v-32.6C279.5,392.7,275.5,388.8,270.7,388.8z"/>
<path class="st2" d="M273,530.9H23c-11,0-20-9-20-20v-250c0-11,9-20,20-20h140L273,530.9z"/>
<path class="st3" d="M203,600.9l-30-70h100L203,600.9z"/>
<path class="st4" d="M134.7,420.9H91.1l-10.1,30H53l47.6-130h24.4l47.9,130h-28.1L134.7,420.9z M97.4,400.9h31l-15.6-47.1
	L97.4,400.9z"/>
</svg>
